<svg width="24" height="24" viewBox="0 0 24 24" fill="none" xmlns="http://www.w3.org/2000/svg">
<path d="M11.1673 21C10.6238 21 10.1062 20.8872 9.61451 20.6615C9.12284 20.4358 8.71609 20.1077 8.39426 19.677L3.65576 13.4057L3.91926 13.1172C4.08593 12.9339 4.28401 12.8217 4.51351 12.7807C4.74301 12.7397 4.9616 12.7802 5.16926 12.902L8.19226 14.3922V6.76925C8.19226 6.62758 8.24026 6.50883 8.33626 6.413C8.43226 6.31717 8.55118 6.26925 8.69301 6.26925C8.83485 6.26925 8.95451 6.31717 9.05201 6.413C9.14934 6.50883 9.19801 6.62758 9.19801 6.76925V16.0885L5.61926 14.3192L9.25776 19.125C9.48593 19.4212 9.76926 19.641 10.1078 19.7845C10.4463 19.9282 10.7994 20 11.1673 20H15.4808C16.1846 20 16.7804 19.7593 17.2683 19.278C17.7561 18.7965 18 18.2038 18 17.5V13.9615C18 13.5583 17.8636 13.2203 17.5908 12.9475C17.3181 12.6748 16.9802 12.5385 16.577 12.5385H11.9673V11.5385H16.577C17.25 11.5385 17.8221 11.7741 18.2933 12.2452C18.7644 12.7164 19 13.2885 19 13.9615V17.4987C19 18.4714 18.6554 19.2981 17.9663 19.9788C17.2771 20.6596 16.4486 21 15.4808 21H11.1673ZM5.23276 8.76925C5.0546 8.46675 4.91993 8.147 4.82876 7.81C4.73776 7.473 4.69226 7.12608 4.69226 6.76925C4.69226 5.65508 5.08043 4.70991 5.85676 3.93375C6.6331 3.15741 7.57826 2.76925 8.69226 2.76925C9.80643 2.76925 10.7517 3.15741 11.528 3.93375C12.3042 4.70991 12.6923 5.65425 12.6923 6.76675C12.6923 7.12858 12.6468 7.47717 12.5558 7.8125C12.4648 8.14783 12.3302 8.46675 12.152 8.76925L11.2923 8.26925C11.4256 8.03592 11.5256 7.79842 11.5923 7.55675C11.6589 7.31508 11.6923 7.05258 11.6923 6.76925C11.6923 5.93592 11.4006 5.22758 10.8173 4.64425C10.2339 4.06092 9.5256 3.76925 8.69226 3.76925C7.85893 3.76925 7.1506 4.06092 6.56726 4.64425C5.98393 5.22758 5.69226 5.93592 5.69226 6.76925C5.69226 7.05258 5.7256 7.31508 5.79226 7.55675C5.85893 7.79842 5.95893 8.03592 6.09226 8.26925L5.23276 8.76925Z" fill="#FF7801"/>
</svg>
