<svg width="24" height="24" viewBox="0 0 24 24" fill="none" xmlns="http://www.w3.org/2000/svg">
<path d="M16.8845 13.6155C16.3385 13.6155 15.8687 13.4187 15.475 13.025C15.0813 12.6313 14.8845 12.1615 14.8845 11.6155C14.8845 11.0693 15.0813 10.5994 15.475 10.2057C15.8687 9.81225 16.3385 9.6155 16.8845 9.6155C17.4307 9.6155 17.9006 9.81225 18.2943 10.2057C18.6878 10.5994 18.8845 11.0693 18.8845 11.6155C18.8845 12.1615 18.6878 12.6313 18.2943 13.025C17.9006 13.4187 17.4307 13.6155 16.8845 13.6155ZM12.3845 18.6155V17.7155C12.3845 17.4052 12.462 17.1238 12.617 16.8715C12.7718 16.6192 12.9918 16.4377 13.277 16.327C13.8402 16.0898 14.4229 15.9119 15.0253 15.7933C15.6276 15.6748 16.2473 15.6155 16.8845 15.6155C17.4958 15.6155 18.1032 15.6748 18.7065 15.7933C19.3098 15.9119 19.9051 16.0898 20.4923 16.327C20.7773 16.4377 20.9973 16.6192 21.1523 16.8715C21.3071 17.1238 21.3845 17.4052 21.3845 17.7155V18.6155H12.3845ZM9.61551 11.3845C8.79051 11.3845 8.08426 11.0908 7.49676 10.5033C6.90926 9.91575 6.61551 9.2095 6.61551 8.3845C6.61551 7.5595 6.90926 6.85325 7.49676 6.26575C8.08426 5.67825 8.79051 5.3845 9.61551 5.3845C10.4405 5.3845 11.1468 5.67825 11.7343 6.26575C12.3218 6.85325 12.6155 7.5595 12.6155 8.3845C12.6155 9.2095 12.3218 9.91575 11.7343 10.5033C11.1468 11.0908 10.4405 11.3845 9.61551 11.3845ZM2.61551 18.6155V16.9693C2.61551 16.5367 2.73468 16.1392 2.97301 15.7765C3.21151 15.414 3.53593 15.1462 3.94626 14.973C4.83076 14.5243 5.74934 14.1859 6.70201 13.9578C7.65468 13.7296 8.62584 13.6155 9.61551 13.6155C10.0193 13.6155 10.4232 13.6366 10.827 13.6788C11.2308 13.7211 11.6347 13.7769 12.0385 13.8463L11.6115 14.2923C11.4692 14.4411 11.3268 14.5898 11.1845 14.7385C10.923 14.6872 10.6615 14.6538 10.4 14.6385C10.1385 14.6232 9.87701 14.6155 9.61551 14.6155C8.71284 14.6155 7.82143 14.7129 6.94126 14.9078C6.06126 15.1026 5.22184 15.4167 4.42301 15.85C4.20518 15.9718 4.01609 16.1238 3.85576 16.3058C3.69559 16.4878 3.61551 16.7089 3.61551 16.9693V17.6155H9.61551V18.6155H2.61551ZM9.61551 10.3845C10.1655 10.3845 10.6363 10.1887 11.028 9.797C11.4197 9.40533 11.6155 8.9345 11.6155 8.3845C11.6155 7.8345 11.4197 7.36367 11.028 6.972C10.6363 6.58033 10.1655 6.3845 9.61551 6.3845C9.06551 6.3845 8.59468 6.58033 8.20301 6.972C7.81134 7.36367 7.61551 7.8345 7.61551 8.3845C7.61551 8.9345 7.81134 9.40533 8.20301 9.797C8.59468 10.1887 9.06551 10.3845 9.61551 10.3845Z" fill="#FF7801"/>
</svg>
