<svg width="24" height="24" viewBox="0 0 24 24" fill="none" xmlns="http://www.w3.org/2000/svg">
<path d="M9.1155 17C8.65517 17 8.27083 16.8458 7.9625 16.5375C7.65417 16.2292 7.5 15.8448 7.5 15.3845V4.6155C7.5 4.15517 7.65417 3.77083 7.9625 3.4625C8.27083 3.15417 8.65517 3 9.1155 3H16.8845C17.3448 3 17.7292 3.15417 18.0375 3.4625C18.3458 3.77083 18.5 4.15517 18.5 4.6155V15.3845C18.5 15.8448 18.3458 16.2292 18.0375 16.5375C17.7292 16.8458 17.3448 17 16.8845 17H9.1155ZM9.1155 16H16.8845C17.0385 16 17.1796 15.9359 17.3077 15.8077C17.4359 15.6796 17.5 15.5385 17.5 15.3845V4.6155C17.5 4.4615 17.4359 4.32042 17.3077 4.19225C17.1796 4.06408 17.0385 4 16.8845 4H9.1155C8.9615 4 8.82042 4.06408 8.69225 4.19225C8.56408 4.32042 8.5 4.4615 8.5 4.6155V15.3845C8.5 15.5385 8.56408 15.6796 8.69225 15.8077C8.82042 15.9359 8.9615 16 9.1155 16ZM6.1155 20C5.65517 20 5.27083 19.8458 4.9625 19.5375C4.65417 19.2292 4.5 18.8449 4.5 18.3848V6.6155H5.5V18.3848C5.5 18.5386 5.56408 18.6796 5.69225 18.8077C5.82042 18.9359 5.9615 19 6.1155 19H14.8845V20H6.1155Z" fill="#FF7801"/>
</svg>
