<svg width="56" height="56" viewBox="0 0 56 56" fill="none" xmlns="http://www.w3.org/2000/svg">
<path d="M46.0565 34.9732L44.3246 33.2413C45.9459 31.6468 47.2201 29.798 48.1472 27.6949C49.0747 25.5918 49.5384 23.3602 49.5384 21C49.5384 18.6399 49.0747 16.4127 48.1472 14.3185C47.2201 12.2247 45.9459 10.3806 44.3246 8.78619L46.0565 7.02686C47.8754 8.81886 49.3216 10.9204 50.3954 13.3315C51.4695 15.7426 52.0065 18.2988 52.0065 21C52.0065 23.7012 51.4695 26.2574 50.3954 28.6685C49.3216 31.0796 47.8754 33.1812 46.0565 34.9732ZM38.3204 27.237L36.5616 25.4783C37.1718 24.8771 37.6534 24.1957 38.0065 23.4343C38.3596 22.6728 38.5362 21.8614 38.5362 21C38.5362 20.0787 38.3596 19.2524 38.0065 18.5209C37.6534 17.7894 37.1718 17.123 36.5616 16.5218L38.3204 14.763C39.146 15.5618 39.8042 16.4854 40.2949 17.5339C40.7853 18.5823 41.0305 19.7377 41.0305 21C41.0305 22.2025 40.7853 23.3429 40.2949 24.4213C39.8042 25.4997 39.146 26.4382 38.3204 27.237ZM20.3269 28C18.3886 28 16.7374 27.3179 15.3732 25.9537C14.009 24.5899 13.3269 22.9386 13.3269 21C13.3269 19.0614 14.009 17.4102 15.3732 16.0464C16.7374 14.6821 18.3886 14 20.3269 14C22.2655 14 23.9167 14.6821 25.2805 16.0464C26.6448 17.4102 27.3269 19.0614 27.3269 21C27.3269 22.9386 26.6448 24.5899 25.2805 25.9537C23.9167 27.3179 22.2655 28 20.3269 28ZM3.99353 44.8718V41.0305C3.99353 39.9568 4.2642 39.0281 4.80553 38.2445C5.34725 37.4605 6.11161 36.8367 7.09861 36.3732C8.99211 35.4519 11.0937 34.6936 13.4033 34.0982C15.7125 33.5028 18.0204 33.2051 20.3269 33.2051C22.6334 33.2051 24.9412 33.5028 27.2504 34.0982C29.5601 34.6936 31.6616 35.4519 33.5551 36.3732C34.5425 36.8367 35.3069 37.4605 35.8482 38.2445C36.3895 39.0281 36.6602 39.9568 36.6602 41.0305V44.8718H3.99353Z" fill="#FF7801"/>
</svg>
