<svg width="56" height="56" viewBox="0 0 56 56" fill="none" xmlns="http://www.w3.org/2000/svg">
<path d="M21 36.4361C19.6358 36.4361 18.472 35.9545 17.5088 34.9912C16.5455 34.0279 16.0638 32.8642 16.0638 31.5C16.0638 30.1357 16.5455 28.972 17.5088 28.0087C18.472 27.0454 19.6358 26.5638 21 26.5638C22.3642 26.5638 23.528 27.0454 24.4913 28.0087C25.4545 28.972 25.9362 30.1357 25.9362 31.5C25.9362 32.8642 25.4545 34.0279 24.4913 34.9912C23.528 35.9545 22.3642 36.4361 21 36.4361ZM13.1028 49C12.0287 49 11.132 48.6402 10.4125 47.9208C9.69307 47.2014 9.33334 46.3046 9.33334 45.2305V15.4361C9.33334 14.362 9.69307 13.4652 10.4125 12.7458C11.132 12.0264 12.0287 11.6666 13.1028 11.6666H17.2305V6.46155H19.7435V11.6666H36.4362V6.46155H38.7695V11.6666H42.8972C43.9713 11.6666 44.8681 12.0264 45.5875 12.7458C46.307 13.4652 46.6667 14.362 46.6667 15.4361V45.2305C46.6667 46.3046 46.307 47.2014 45.5875 47.9208C44.8681 48.6402 43.9713 49 42.8972 49H13.1028ZM13.1028 46.6666H42.8972C43.2565 46.6666 43.5857 46.5171 43.8848 46.218C44.1838 45.919 44.3333 45.5898 44.3333 45.2305V24.7695H11.6667V45.2305C11.6667 45.5898 11.8162 45.919 12.1153 46.218C12.4143 46.5171 12.7435 46.6666 13.1028 46.6666Z" fill="#FF7801"/>
</svg>
