<svg width="23" height="21" viewBox="0 0 23 21" fill="none" xmlns="http://www.w3.org/2000/svg">
<g clip-path="url(#clip0_4024_804)">
<path d="M9.5 0.5C14.4706 0.5 18.5 4.52944 18.5 9.5C18.5 11.4436 17.884 13.2433 16.8364 14.7144L22.0894 19.8125L21.3929 20.5301L16.2086 15.4997C14.5606 17.3411 12.1657 18.5 9.5 18.5C4.52944 18.5 0.5 14.4706 0.5 9.5C0.5 4.52944 4.52944 0.5 9.5 0.5ZM9.5 1.5C5.08172 1.5 1.5 5.08172 1.5 9.5C1.5 13.9183 5.08172 17.5 9.5 17.5C13.9183 17.5 17.5 13.9183 17.5 9.5C17.5 5.08172 13.9183 1.5 9.5 1.5Z" fill="#FF7801"/>
</g>
<defs>
<clipPath id="clip0_4024_804">
<rect width="23" height="21" fill="white"/>
</clipPath>
</defs>
</svg>
