<svg width="24" height="24" viewBox="0 0 24 24" fill="none" xmlns="http://www.w3.org/2000/svg">
<path d="M12 19.6537L11.2423 18.9692C9.61025 17.4782 8.26025 16.202 7.19225 15.1405C6.12442 14.0788 5.2815 13.1426 4.6635 12.3317C4.0455 11.5209 3.61375 10.7872 3.36825 10.1307C3.12275 9.47441 3 8.81416 3 8.14999C3 6.87816 3.43208 5.81024 4.29625 4.94624C5.16025 4.08208 6.22817 3.64999 7.5 3.64999C8.3795 3.64999 9.2045 3.87499 9.975 4.32499C10.7455 4.77499 11.4205 5.42949 12 6.28849C12.5795 5.42949 13.2545 4.77499 14.025 4.32499C14.7955 3.87499 15.6205 3.64999 16.5 3.64999C17.7718 3.64999 18.8398 4.08208 19.7038 4.94624C20.5679 5.81024 21 6.87816 21 8.14999C21 8.81416 20.8773 9.47441 20.6318 10.1307C20.3863 10.7872 19.9545 11.5209 19.3365 12.3317C18.7185 13.1426 17.8787 14.0788 16.8173 15.1405C15.7558 16.202 14.4026 17.4782 12.7578 18.9692L12 19.6537Z" fill="white"/>
</svg>
