<svg width="18" height="17" viewBox="0 0 18 17" fill="none" xmlns="http://www.w3.org/2000/svg">
<path d="M9 16.6538L8.24225 15.9693C6.61025 14.4783 5.26025 13.202 4.19225 12.1405C3.12442 11.0789 2.2815 10.1426 1.6635 9.33177C1.0455 8.52094 0.61375 7.78727 0.36825 7.13077C0.12275 6.47444 0 5.81419 0 5.15002C0 3.87819 0.432084 2.81027 1.29625 1.94627C2.16025 1.08211 3.22817 0.650024 4.5 0.650024C5.3795 0.650024 6.2045 0.875024 6.975 1.32502C7.7455 1.77502 8.4205 2.42952 9 3.28852C9.5795 2.42952 10.2545 1.77502 11.025 1.32502C11.7955 0.875024 12.6205 0.650024 13.5 0.650024C14.7718 0.650024 15.8398 1.08211 16.7038 1.94627C17.5679 2.81027 18 3.87819 18 5.15002C18 5.81419 17.8773 6.47444 17.6318 7.13077C17.3863 7.78727 16.9545 8.52094 16.3365 9.33177C15.7185 10.1426 14.8788 11.0789 13.8173 12.1405C12.7558 13.202 11.4026 14.4783 9.75775 15.9693L9 16.6538Z" fill="#FF7801"/>
</svg>
