<svg width="24" height="24" viewBox="0 0 24 24" fill="none" xmlns="http://www.w3.org/2000/svg">
<path d="M12 20.9615C9.991 20.3653 8.32208 19.1483 6.99325 17.3105C5.66442 15.4727 5 13.4025 5 11.1V5.69225L12 3.077L19 5.69225V11.1C19 13.4025 18.3356 15.4727 17.0068 17.3105C15.6779 19.1483 14.009 20.3653 12 20.9615ZM10.0385 15.6538H13.9615C14.1903 15.6538 14.3822 15.5764 14.537 15.4218C14.6918 15.2669 14.7693 15.0751 14.7693 14.8463V11.923C14.7693 11.6942 14.6918 11.5023 14.537 11.3475C14.3822 11.1928 14.1903 11.1155 13.9615 11.1155H13.7885V10.1155C13.7885 9.61667 13.6183 9.19709 13.278 8.85675C12.9375 8.51642 12.5179 8.34625 12.0192 8.34625C11.5206 8.34625 11.101 8.51642 10.7605 8.85675C10.4202 9.19709 10.25 9.61667 10.25 10.1155V11.1155H10.0385C9.80967 11.1155 9.61783 11.1928 9.463 11.3475C9.30817 11.5023 9.23075 11.6942 9.23075 11.923V14.8463C9.23075 15.0751 9.30817 15.2669 9.463 15.4218C9.61783 15.5764 9.80967 15.6538 10.0385 15.6538ZM11.0192 11.1155V10.1155C11.0192 9.83217 11.1151 9.59467 11.3067 9.403C11.4984 9.21134 11.7359 9.1155 12.0192 9.1155C12.3026 9.1155 12.5401 9.21134 12.7318 9.403C12.9234 9.59467 13.0193 9.83217 13.0193 10.1155V11.1155H11.0192Z" fill="#FF7801"/>
</svg>
