<svg width="24" height="24" viewBox="0 0 24 24" fill="none" xmlns="http://www.w3.org/2000/svg">
<path d="M15.003 19C13.0497 19 11.3942 18.3222 10.0365 16.9665C8.67883 15.6108 8 13.9563 8 12.003C8 10.0497 8.67783 8.39417 10.0335 7.0365C11.3892 5.67883 13.0437 5 14.997 5C16.9503 5 18.6058 5.67783 19.9635 7.0335C21.3212 8.38917 22 10.0437 22 11.997C22 13.9503 21.3222 15.6058 19.9665 16.9635C18.6108 18.3212 16.9563 19 15.003 19ZM7 18.7115C5.48967 18.309 4.27875 17.484 3.36725 16.2365C2.45575 14.9892 2 13.577 2 12C2 10.423 2.45575 9.01083 3.36725 7.7635C4.27875 6.516 5.48967 5.691 7 5.2885V6.35C5.8 6.76667 4.83333 7.49167 4.1 8.525C3.36667 9.55833 3 10.7167 3 12C3 13.2833 3.36667 14.4417 4.1 15.475C4.83333 16.5083 5.8 17.2333 7 17.65V18.7115Z" fill="#FFB801"/>
</svg>
