<svg width="24" height="24" viewBox="0 0 24 24" fill="none" xmlns="http://www.w3.org/2000/svg">
<path d="M20.5155 14.1538L14.1538 20.5155C13.9904 20.677 13.8067 20.7981 13.6025 20.8788C13.3983 20.9596 13.1952 21 12.9932 21C12.7914 21 12.5895 20.9596 12.3875 20.8788C12.1855 20.7981 12.0037 20.677 11.8422 20.5155L3.47875 12.1713C3.32108 12.0262 3.20192 11.8536 3.12125 11.6533C3.04042 11.4529 3 11.2422 3 11.0212V4.6345C3 4.185 3.15733 3.80025 3.472 3.48025C3.78683 3.16008 4.17433 3 4.6345 3H11.0213C11.2374 3 11.4469 3.04375 11.6497 3.13125C11.8526 3.21875 12.0283 3.3365 12.177 3.4845L20.5155 11.8287C20.682 11.9923 20.8034 12.1761 20.8798 12.3802C20.9561 12.5844 20.9943 12.7898 20.9943 12.9965C20.9943 13.2032 20.9561 13.4064 20.8798 13.6062C20.8034 13.8059 20.682 13.9884 20.5155 14.1538ZM6.54975 7.55775C6.83075 7.55775 7.069 7.4605 7.2645 7.266C7.46 7.0715 7.55775 6.83542 7.55775 6.55775C7.55775 6.27458 7.4605 6.03392 7.266 5.83575C7.0715 5.63758 6.83542 5.5385 6.55775 5.5385C6.27458 5.5385 6.03392 5.63683 5.83575 5.8335C5.63758 6.03017 5.5385 6.26892 5.5385 6.54975C5.5385 6.83075 5.63683 7.069 5.8335 7.2645C6.03017 7.46 6.26892 7.55775 6.54975 7.55775ZM13 16.923L16.0385 13.7692C16.1833 13.6244 16.2939 13.4558 16.3702 13.2635C16.4464 13.0712 16.4845 12.859 16.4845 12.627C16.4845 12.2013 16.3333 11.8302 16.031 11.5135C15.7285 11.1968 15.363 11.0385 14.9345 11.0385C14.6092 11.0385 14.2881 11.1237 13.9712 11.2942C13.6546 11.4648 13.3308 11.7667 13 12.2C12.6538 11.759 12.3265 11.4552 12.018 11.2885C11.7095 11.1218 11.392 11.0385 11.0655 11.0385C10.637 11.0385 10.2715 11.1968 9.969 11.5135C9.66667 11.8302 9.5155 12.2013 9.5155 12.627C9.5155 12.859 9.55358 13.0712 9.62975 13.2635C9.70608 13.4558 9.81667 13.6244 9.9615 13.7692L13 16.923Z" fill="#01FF76"/>
</svg>
