<svg width="24" height="24" viewBox="0 0 24 24" fill="none" xmlns="http://www.w3.org/2000/svg">
<path d="M19.4058 19.2595L19.952 18.7135L18.0577 16.8193V14.077H17.2885V17.1423L19.4058 19.2595ZM17.6788 21.2885C16.4711 21.2885 15.4471 20.8725 14.6068 20.0405C13.7664 19.2083 13.3462 18.1884 13.3462 16.9808C13.3462 15.7731 13.7664 14.75 14.6068 13.9115C15.4471 13.073 16.4711 12.6537 17.6788 12.6537C18.8826 12.6537 19.9006 13.074 20.7327 13.9145C21.5648 14.7548 21.9807 15.7769 21.9807 16.9808C21.9807 18.1846 21.5648 19.2035 20.7327 20.0375C19.9006 20.8715 18.8826 21.2885 17.6788 21.2885ZM4.6155 19C4.15517 19 3.77083 18.8458 3.4625 18.5375C3.15417 18.2292 3 17.8448 3 17.3845V6.6155C3 6.15517 3.15417 5.77083 3.4625 5.4625C3.77083 5.15417 4.15517 5 4.6155 5H19.3845C19.8448 5 20.2292 5.15417 20.5375 5.4625C20.8458 5.77083 21 6.15517 21 6.6155V11.2865C20.841 11.1852 20.6814 11.0928 20.5212 11.0095C20.3609 10.9262 20.1872 10.8518 20 10.7865V8.80775H4V11.1923H14.3845C13.35 11.7231 12.5138 12.4977 11.876 13.5162C11.2382 14.5349 10.9193 15.6705 10.9193 16.923C10.9193 17.2897 10.9488 17.6471 11.0078 17.9952C11.0668 18.3433 11.1532 18.6782 11.2673 19H4.6155Z" fill="#FF7801"/>
</svg>
