<svg width="20" height="20" viewBox="0 0 20 20" fill="none" xmlns="http://www.w3.org/2000/svg">
<path fill-rule="evenodd" clip-rule="evenodd" d="M18.7339 3.8955C18.8611 3.31012 18.7702 2.79506 18.3379 2.53721C17.9655 2.31507 17.5064 2.40099 17.1957 2.5254L17.1953 2.52559C16.9329 2.63104 13.1525 4.24903 9.44869 5.83586C7.59434 6.63033 5.75606 7.41835 4.38137 8.00774L2.10611 8.98339C2.09839 8.98626 2.08799 8.99022 2.07571 8.99508C2.05068 9.00499 2.0165 9.01922 1.9763 9.03775C1.89723 9.0742 1.78847 9.13025 1.67854 9.20685C1.48715 9.3402 1.14887 9.63917 1.20623 10.1037C1.25442 10.4941 1.52009 10.746 1.70666 10.8802C1.80561 10.9513 1.90049 11.0028 1.97013 11.0365C2.00537 11.0535 2.03525 11.0666 2.05741 11.0757C2.06852 11.0803 2.07777 11.084 2.08488 11.0867L2.09392 11.0902L2.09719 11.0914L2.0985 11.0918L2.09907 11.0921C2.0992 11.0921 2.09959 11.0922 2.23521 10.7159L2.09959 11.0922L2.1026 11.0933L5.66312 12.3126L5.78458 12.7174C5.89428 13.083 6.04288 13.5779 6.19846 14.0952C6.50923 15.1285 6.84896 16.2551 6.96128 16.616C6.96126 16.6159 6.9613 16.6161 6.96128 16.616M7.61176 17.6102C7.82595 17.695 8.02346 17.6615 8.15096 17.6177C8.21821 17.5946 8.27274 17.5666 8.31113 17.5441C8.33063 17.5326 8.34683 17.5221 8.35935 17.5135C8.36563 17.5092 8.37106 17.5053 8.37558 17.502L8.38171 17.4975L8.38427 17.4955L8.38543 17.4946L8.38597 17.4942C8.3861 17.4941 8.3865 17.4938 8.14161 17.1775L8.3865 17.4938L8.40058 17.4829L10.5884 15.4535L14.138 18.222L14.1829 18.2419C14.4952 18.3806 14.7852 18.4238 15.0489 18.3871C15.3122 18.3506 15.5209 18.2385 15.6774 18.1111C15.8316 17.9856 15.9373 17.844 16.0038 17.7373C16.0376 17.6831 16.0627 17.6356 16.08 17.6001C16.0887 17.5822 16.0956 17.5672 16.1006 17.5556C16.1031 17.5498 16.1052 17.5449 16.1069 17.5408L16.1091 17.5355L16.11 17.5333L16.1105 17.532C16.1106 17.5317 16.1107 17.5315 15.7384 17.3851L16.1107 17.5315L16.1243 17.497L18.7339 3.8955M15.3548 17.2617L15.3456 17.3098L15.7384 17.3851C15.3662 17.2387 15.3662 17.2385 15.3663 17.2383L15.3667 17.2373L15.3672 17.2362L15.3674 17.2357C15.3678 17.2347 15.3679 17.2344 15.3677 17.2348L15.3674 17.2357C15.3665 17.2377 15.3643 17.2425 15.3609 17.2496C15.3591 17.2532 15.3571 17.2572 15.3548 17.2617ZM14.55 17.5288C14.7262 17.6001 14.8524 17.6068 14.9389 17.5948C15.0326 17.5817 15.1084 17.5427 15.1725 17.4906C15.2389 17.4365 15.2899 17.3703 15.3249 17.3141C15.3378 17.2935 15.3477 17.2755 15.3548 17.2617L17.9502 3.73457L17.9513 3.72941C18.0008 3.50372 17.9915 3.3704 17.973 3.30057C17.9574 3.24172 17.937 3.22959 17.9281 3.22428C17.9095 3.2132 17.8644 3.19676 17.7793 3.20055C17.6959 3.20428 17.5959 3.22693 17.4933 3.26798C17.2402 3.36978 13.4761 4.98071 9.76374 6.57122C7.90948 7.36565 6.07127 8.15363 4.69661 8.74301L2.41105 9.72308C2.41094 9.72313 2.41089 9.72315 2.25321 9.35554L2.41105 9.72308L2.39794 9.7287L2.38624 9.73277L2.3854 9.73307L2.38419 9.73352C2.38166 9.73446 2.37691 9.73625 2.37026 9.73888C2.35691 9.74417 2.33637 9.75267 2.31125 9.76425C2.25969 9.78802 2.19545 9.82173 2.13588 9.86323C2.07405 9.90631 2.03393 9.9463 2.0132 9.97716C2.00388 9.99104 2.00113 9.99916 2.00043 10.0017C2.00003 10.0031 1.99992 10.0035 2.0002 10.0057C2.00801 10.069 2.05834 10.1477 2.17377 10.2307C2.22582 10.2681 2.27844 10.2969 2.31855 10.3163C2.33819 10.3258 2.35374 10.3326 2.3633 10.3365C2.36661 10.3379 2.36915 10.3389 2.37085 10.3396L6.31133 11.6889L6.37037 11.8859L5.98721 12.0007C6.37037 11.8859 6.37036 11.8859 6.37037 11.8859L6.55082 12.4875C6.6605 12.8529 6.80905 13.3477 6.96457 13.8648C7.276 14.9003 7.61427 16.022 7.72515 16.3783C7.80497 16.6352 7.8722 16.774 7.9136 16.8435L10.5436 14.404L14.55 17.5288ZM7.90039 16.8656C7.90152 16.8671 7.903 16.8691 7.90498 16.8716C7.92204 16.8938 7.97537 16.9628 8.14161 17.1775L7.86959 16.8843L7.89273 16.8628C7.88806 16.8623 7.88518 16.8628 7.88508 16.8629C7.885 16.8629 7.88671 16.8626 7.8907 16.8612C7.88401 16.8583 7.87678 16.8554 7.86902 16.8527C7.85657 16.8484 7.84302 16.8445 7.82842 16.8413C7.82114 16.8397 7.81364 16.8382 7.80594 16.837C7.80209 16.8364 7.7982 16.8359 7.79426 16.8354L7.78832 16.8347L7.78532 16.8344L7.8474 16.8402L7.8929 16.8604C7.89437 16.8599 7.8958 16.8593 7.89718 16.8587L7.9136 16.8435M2.3732 10.3405C2.37348 10.3406 2.37326 10.3405 2.37258 10.3403L2.3732 10.3405ZM10.5884 15.4535L10.838 15.222L10.566 14.9287L10.32 15.2441L10.5884 15.4535ZM7.61176 17.6102C7.60203 17.6064 7.59228 17.6023 7.58249 17.5979L7.74481 17.2323C7.70731 17.6306 7.70656 17.6305 7.7058 17.6304L7.70429 17.6303L7.70125 17.63L7.69511 17.6292C7.691 17.6287 7.68685 17.6281 7.68265 17.6275C7.67426 17.6262 7.66573 17.6246 7.65709 17.6227C7.64216 17.6194 7.62703 17.6153 7.61176 17.6102ZM7.74481 17.2323C7.78232 16.8341 7.78307 16.8342 7.78382 16.8342L7.78232 16.8341L7.74481 17.2323Z" fill="white"/>
<path fill-rule="evenodd" clip-rule="evenodd" d="M15.8988 5.33407C16.0314 5.48309 16.034 5.70703 15.9048 5.85902L9.10479 13.859C8.96172 14.0273 8.70928 14.0478 8.54096 13.9047C8.37264 13.7617 8.35217 13.5092 8.49524 13.3409L13.4455 7.51702L6.2219 12.3328C6.03809 12.4553 5.78974 12.4057 5.6672 12.2218C5.54466 12.038 5.59433 11.7897 5.77814 11.6671L15.3781 5.26714C15.5441 5.15649 15.7662 5.18504 15.8988 5.33407Z" fill="white"/>
<path fill-rule="evenodd" clip-rule="evenodd" d="M8.66122 13.2248C8.78865 13.1777 8.9313 13.1984 9.04 13.28L10.64 14.48C10.8167 14.6125 10.8525 14.8632 10.72 15.04C10.5875 15.2167 10.3367 15.2525 10.16 15.12L9.05598 14.2919L8.39047 17.2867C8.34255 17.5024 8.12888 17.6384 7.91323 17.5904C7.69757 17.5425 7.5616 17.3288 7.60953 17.1132L8.40953 13.5132C8.439 13.3805 8.53379 13.2719 8.66122 13.2248Z" fill="white"/>
</svg>
