<svg width="20" height="20" viewBox="0 0 20 20" fill="none" xmlns="http://www.w3.org/2000/svg">
<g clip-path="url(#clip0_4015_1284)">
<path fill-rule="evenodd" clip-rule="evenodd" d="M9.35361 6.52996C9.35361 4.1338 11.2963 2.19116 13.6932 2.19116C14.8582 2.19116 15.9192 2.6503 16.6985 3.39867C17.4723 3.22347 18.2021 2.92883 18.8658 2.53579C19.0087 2.45116 19.189 2.46364 19.3189 2.56716C19.4488 2.67067 19.5012 2.84368 19.4506 3.00187C19.2938 3.49172 19.052 3.94342 18.7429 4.34003C18.9799 4.26226 19.2116 4.17301 19.4379 4.0727C19.6006 4.00054 19.7914 4.04459 19.906 4.18077C20.0207 4.31695 20.0315 4.51249 19.9326 4.66051C19.4187 5.43008 18.7782 6.11334 18.0428 6.67424C18.0456 6.77797 18.0472 6.88286 18.0472 6.98836C18.0472 12.364 13.9508 18.5948 6.43841 18.5948C4.13467 18.5948 1.98889 17.9193 0.184393 16.7614C0.0274078 16.6607 -0.0391213 16.4648 0.0240327 16.2893C0.0871867 16.1138 0.263258 16.0053 0.448431 16.0277C0.738842 16.0628 1.03554 16.0796 1.33961 16.0796C2.73504 16.0796 4.04064 15.7017 5.16021 15.0422C3.74422 14.6554 2.61685 13.5692 2.17041 12.1808C2.12715 12.0463 2.15808 11.8989 2.25177 11.7931C2.33715 11.6968 2.46311 11.6479 2.58979 11.6602C1.4896 10.8732 0.772007 9.58542 0.772007 8.12836V8.07836C0.772007 7.93662 0.847014 7.80547 0.969178 7.7336C1.09134 7.66173 1.24242 7.65987 1.36631 7.72872C1.45874 7.78009 1.55367 7.82748 1.65088 7.87065C1.11838 7.14955 0.804007 6.25761 0.804007 5.29276C0.804007 4.49864 1.01727 3.75308 1.39104 3.11046C1.45704 2.99698 1.57452 2.92311 1.70539 2.9128C1.83626 2.90249 1.96386 2.95705 2.04682 3.05879C3.82197 5.2359 6.42627 6.70677 9.37783 6.99149C9.36177 6.8396 9.35361 6.68562 9.35361 6.52996ZM13.6932 2.99116C11.7381 2.99116 10.1536 4.57573 10.1536 6.52996C10.1536 6.80782 10.1853 7.07763 10.2459 7.3364C10.2745 7.45874 10.244 7.58743 10.1635 7.68389C10.083 7.78036 9.96179 7.83337 9.8363 7.82706C6.66647 7.66748 3.83256 6.23754 1.83302 4.03625C1.68492 4.42682 1.60401 4.85006 1.60401 5.29276C1.60401 6.52044 2.22698 7.60313 3.17829 8.23901C3.3267 8.33821 3.39142 8.52375 3.33689 8.69373C3.28237 8.86372 3.12181 8.97699 2.94339 8.97136C2.4805 8.95675 2.03616 8.86895 1.62125 8.72006C1.86428 10.164 2.98166 11.3108 4.40957 11.5991C4.59109 11.6357 4.72372 11.7922 4.73016 11.9772C4.73661 12.1623 4.61517 12.3276 4.43664 12.3768C4.07197 12.4773 3.68822 12.5296 3.29361 12.5296C3.25703 12.5296 3.2206 12.5291 3.18432 12.5282C3.7729 13.6208 4.91849 14.3702 6.23894 14.3944C6.40816 14.3975 6.55711 14.5068 6.61088 14.6673C6.66465 14.8277 6.61161 15.0047 6.47843 15.1091C5.23182 16.0867 3.69861 16.7157 2.02597 16.8518C3.37289 17.4569 4.86575 17.7948 6.43841 17.7948C13.4172 17.7948 17.2472 12.0199 17.2472 6.98836C17.2472 6.82352 17.243 6.65854 17.236 6.49553C17.2302 6.36115 17.2924 6.23286 17.4014 6.1541C17.7683 5.8891 18.111 5.59071 18.4247 5.26418C18.0859 5.34914 17.7389 5.41347 17.3848 5.45627C17.1974 5.47893 17.0196 5.36744 16.9584 5.18884C16.8972 5.01024 16.9692 4.81317 17.1311 4.71609C17.5371 4.4727 17.8905 4.15079 18.1698 3.77185C17.6826 3.97015 17.1724 4.12386 16.6448 4.22764C16.5095 4.25426 16.37 4.20929 16.2757 4.10864C15.6306 3.42001 14.7114 2.99116 13.6932 2.99116Z" fill="#FF7801"/>
</g>
<defs>
<clipPath id="clip0_4015_1284">
<rect width="20" height="20" fill="white"/>
</clipPath>
</defs>
</svg>
