<svg width="56" height="56" viewBox="0 0 56 56" fill="none" xmlns="http://www.w3.org/2000/svg">
<path d="M28 26.1333C26.2675 26.1333 24.7845 25.5166 23.551 24.283C22.317 23.0491 21.7 21.5658 21.7 19.8333C21.7 18.1008 22.317 16.6176 23.551 15.3837C24.7845 14.1501 26.2675 13.5333 28 13.5333C29.7325 13.5333 31.2158 14.1501 32.4497 15.3837C33.6833 16.6176 34.3 18.1008 34.3 19.8333C34.3 21.5658 33.6833 23.0491 32.4497 24.283C31.2158 25.5166 29.7325 26.1333 28 26.1333ZM12.3667 42.4667V39.4333C12.3667 38.5778 12.6292 37.7708 13.1542 37.0125C13.6792 36.2542 14.3889 35.6611 15.2834 35.2333C17.4223 34.2222 19.5514 33.4639 21.6709 32.9583C23.7903 32.4528 25.9 32.2 28 32.2C30.1 32.2 32.2098 32.4528 34.3292 32.9583C36.4486 33.4639 38.5778 34.2222 40.7167 35.2333C41.6111 35.6611 42.3209 36.2542 42.8459 37.0125C43.3709 37.7708 43.6334 38.5778 43.6334 39.4333V42.4667H12.3667ZM14 40.8333H42V39.4333C42 38.8889 41.8153 38.3736 41.4459 37.8875C41.0764 37.4014 40.5611 36.9833 39.9 36.6333C38.0334 35.7389 36.0949 35.0486 34.0848 34.5625C32.075 34.0764 30.0468 33.8333 28 33.8333C25.9533 33.8333 23.9251 34.0764 21.9153 34.5625C19.9051 35.0486 17.9667 35.7389 16.1 36.6333C15.4389 36.9833 14.9236 37.4014 14.5542 37.8875C14.1848 38.3736 14 38.8889 14 39.4333V40.8333ZM28 24.5C29.2834 24.5 30.382 24.0431 31.2959 23.1292C32.2098 22.2153 32.6667 21.1167 32.6667 19.8333C32.6667 18.55 32.2098 17.4514 31.2959 16.5375C30.382 15.6236 29.2834 15.1667 28 15.1667C26.7167 15.1667 25.6181 15.6236 24.7042 16.5375C23.7903 17.4514 23.3334 18.55 23.3334 19.8333C23.3334 21.1167 23.7903 22.2153 24.7042 23.1292C25.6181 24.0431 26.7167 24.5 28 24.5Z" fill="#FF7801"/>
</svg>
