<svg width="56" height="56" viewBox="0 0 56 56" fill="none" xmlns="http://www.w3.org/2000/svg">
<path d="M18.6667 32.3972C18.1852 32.3972 17.7656 32.2185 17.4078 31.8611C17.0505 31.5037 16.8718 31.0843 16.8718 30.6029C16.8718 30.121 17.0505 29.7014 17.4078 29.344C17.7656 28.9866 18.1852 28.8079 18.6667 28.8079C19.1481 28.8079 19.5677 28.9866 19.9255 29.344C20.2829 29.7014 20.4616 30.121 20.4616 30.6029C20.4616 31.0843 20.2829 31.5037 19.9255 31.8611C19.5677 32.2185 19.1481 32.3972 18.6667 32.3972ZM28 32.3972C27.5186 32.3972 27.099 32.2185 26.7412 31.8611C26.3838 31.5037 26.2051 31.0843 26.2051 30.6029C26.2051 30.121 26.3838 29.7014 26.7412 29.344C27.099 28.9866 27.5186 28.8079 28 28.8079C28.4815 28.8079 28.9011 28.9866 29.2588 29.344C29.6162 29.7014 29.7949 30.121 29.7949 30.6029C29.7949 31.0843 29.6162 31.5037 29.2588 31.8611C28.9011 32.2185 28.4815 32.3972 28 32.3972ZM37.3333 32.3972C36.8519 32.3972 36.4323 32.2185 36.0745 31.8611C35.7171 31.5037 35.5384 31.0843 35.5384 30.6029C35.5384 30.121 35.7171 29.7014 36.0745 29.344C36.4323 28.9866 36.8519 28.8079 37.3333 28.8079C37.8148 28.8079 38.2344 28.9866 38.5922 29.344C38.9496 29.7014 39.1283 30.121 39.1283 30.6029C39.1283 31.0843 38.9496 31.5037 38.5922 31.8611C38.2344 32.2185 37.8148 32.3972 37.3333 32.3972ZM13.1028 49C12.0287 49 11.132 48.6403 10.4125 47.9209C9.69307 47.2014 9.33334 46.3046 9.33334 45.2305V15.4362C9.33334 14.3621 9.69307 13.4653 10.4125 12.7459C11.132 12.0264 12.0287 11.6667 13.1028 11.6667H17.2305V6.46161H19.7435V11.6667H36.4362V6.46161H38.7695V11.6667H42.8972C43.9713 11.6667 44.8681 12.0264 45.5875 12.7459C46.307 13.4653 46.6667 14.3621 46.6667 15.4362V45.2305C46.6667 46.3046 46.307 47.2014 45.5875 47.9209C44.8681 48.6403 43.9713 49 42.8972 49H13.1028ZM13.1028 46.6667H42.8972C43.2565 46.6667 43.5857 46.5172 43.8848 46.2181C44.1838 45.919 44.3333 45.5899 44.3333 45.2305V24.7695H11.6667V45.2305C11.6667 45.5899 11.8162 45.919 12.1153 46.2181C12.4143 46.5172 12.7435 46.6667 13.1028 46.6667Z" fill="#FF7801"/>
</svg>
