<svg width="20" height="20" viewBox="0 0 20 20" fill="none" xmlns="http://www.w3.org/2000/svg">
<g clip-path="url(#clip0_4015_1281)">
<path fill-rule="evenodd" clip-rule="evenodd" d="M5.7336 5.61985C6.03923 5.29053 6.40884 5.19995 6.65679 5.19995C6.81685 5.19995 6.98113 5.20196 7.12777 5.20878L7.129 5.20884V5.20884C7.13374 5.20908 7.14024 5.2091 7.16368 5.20898L7.16409 5.20897C7.18341 5.20887 7.21471 5.2087 7.24902 5.21063C7.32203 5.21473 7.42032 5.22859 7.52667 5.27819C7.74573 5.38036 7.8955 5.58306 8.00941 5.85346L8.00942 5.85347C8.07554 6.01045 8.17274 6.24414 8.2746 6.48901C8.32489 6.60994 8.37632 6.73359 8.4257 6.85207C8.50067 7.03193 8.57099 7.20007 8.62611 7.33031C8.6537 7.3955 8.67714 7.45039 8.69529 7.49215C8.70437 7.51306 8.7118 7.52992 8.71757 7.54274C8.72297 7.55476 8.72556 7.56021 8.72608 7.56129M6.65679 5.99995C6.58954 5.99995 6.44795 6.02617 6.31998 6.16405C6.30563 6.17951 6.29001 6.19599 6.27333 6.21357C6.03963 6.45996 5.59999 6.9235 5.59999 7.83755C5.59999 8.32039 5.78046 8.8183 5.99365 9.2328C6.20026 9.63452 6.42046 9.92547 6.4804 10.0047L6.48271 10.0077C6.49265 10.0208 6.50934 10.0443 6.53257 10.0769C6.83694 10.5048 8.2644 12.5115 10.3559 13.4035C10.9023 13.6362 11.3283 13.7753 11.6654 13.8811L11.6654 13.8811C12.1521 14.0339 12.6007 14.0146 12.9753 13.9594L12.9753 13.9594C13.1279 13.937 13.4238 13.825 13.7132 13.6418C14.0129 13.4522 14.2006 13.2522 14.2518 13.1104C14.3383 12.871 14.3801 12.6522 14.3943 12.4893C14.3991 12.4343 14.4005 12.3884 14.4 12.3524C14.3742 12.339 14.3427 12.3236 14.302 12.3041C14.2923 12.2994 14.2822 12.2946 14.2716 12.2895C14.2312 12.2703 14.1845 12.248 14.1354 12.2236C14.0194 12.1663 13.6718 11.9968 13.3263 11.8322C12.9678 11.6614 12.6479 11.5134 12.5642 11.4836L12.563 11.4831C12.5377 11.474 12.5169 11.4668 12.4985 11.461C12.4958 11.4601 12.4932 11.4593 12.4907 11.4585C12.3099 11.7223 11.8496 12.2547 11.7192 12.4025L11.7188 12.4029C11.6111 12.5247 11.4595 12.641 11.248 12.6664C11.0527 12.6899 10.8747 12.6264 10.7302 12.5548C10.7006 12.5402 10.6564 12.5214 10.5996 12.4973C10.279 12.361 9.55365 12.0527 8.74388 11.3388C7.99384 10.6784 7.49432 9.87162 7.34974 9.62617C7.23264 9.42737 7.1966 9.21097 7.27579 9.0004C7.33672 8.83837 7.45553 8.72245 7.50902 8.67027C7.51209 8.66727 7.51495 8.66448 7.51757 8.66191L7.79789 8.94705L7.5173 8.66217C7.57468 8.60566 7.63304 8.53525 7.70341 8.45036C7.74692 8.39787 7.79502 8.33984 7.85032 8.27614C7.91603 8.20044 7.93731 8.15763 7.99449 8.04259C8.00526 8.02091 8.01731 7.99667 8.03117 7.96916C8.03123 7.96904 8.0313 7.96891 8.03136 7.96879C8.03084 7.96677 8.03005 7.96404 8.02886 7.96055C8.02573 7.95134 8.02045 7.93865 8.0116 7.92119L8.01061 7.91924L8.01062 7.91924C7.96536 7.82872 7.72422 7.24901 7.51616 6.74884C7.42036 6.51854 7.33158 6.3051 7.27216 6.16405M14.394 12.2757C14.394 12.2756 14.3945 12.2773 14.3951 12.2809C14.3942 12.2776 14.3939 12.2758 14.394 12.2757ZM6.65679 5.99995C6.81173 5.99995 6.96166 6.00193 7.09011 6.0079L6.65679 5.99995ZM7.09011 6.0079C7.11863 6.00928 7.14688 6.0091 7.16351 6.00899C7.16514 6.00898 7.16665 6.00897 7.16804 6.00896C7.17638 6.00892 7.18281 6.00891 7.18799 6.00895C7.20409 6.02882 7.23399 6.07343 7.27216 6.16403M7.17485 5.99504C7.17487 5.99499 7.1755 5.99544 7.1767 5.99654C7.17544 5.99564 7.17484 5.99509 7.17485 5.99504ZM5.7336 5.61985C5.72016 5.63433 5.70484 5.65044 5.68791 5.66823L5.7336 5.61985ZM5.68791 5.66823C5.42998 5.93946 4.79999 6.6019 4.79999 7.83755L5.68791 5.66823ZM11.4258 14.6444C11.0773 14.535 10.6233 14.3869 10.0425 14.1396L10.0423 14.1395C8.788 13.6046 7.76507 12.721 7.04771 11.9657C6.68723 11.5861 6.39967 11.2345 6.19448 10.9675C6.09179 10.834 6.00968 10.7215 5.94948 10.6376C5.92145 10.5984 5.89814 10.5655 5.88027 10.5402L5.87656 10.535L5.85428 10.5035C5.8489 10.496 5.84657 10.4929 5.84613 10.4923C5.84606 10.4922 5.84604 10.4921 5.84607 10.4922L5.84537 10.4913L5.84197 10.4868C5.77375 10.3966 5.52054 10.0621 5.28223 9.5987C5.04271 9.13301 4.79999 8.50272 4.79999 7.83755" fill="white"/>
<path fill-rule="evenodd" clip-rule="evenodd" d="M0.799996 10C0.799996 4.91914 4.91908 0.800049 10 0.800049C15.0809 0.800049 19.2 4.91914 19.2 10C19.2 15.081 15.0809 19.2 10 19.2C8.42803 19.2 6.94874 18.8039 5.65424 18.1087L1.29618 19.1883C1.15799 19.2225 1.01201 19.1807 0.91288 19.0786C0.813751 18.9764 0.776414 18.8292 0.814842 18.6921L1.98541 14.5162C1.23176 13.182 0.799996 11.6411 0.799996 10ZM10 1.60005C5.36091 1.60005 1.6 5.36096 1.6 10C1.6 11.5551 2.02408 13.01 2.76055 14.2589C2.8159 14.3527 2.83056 14.4651 2.80115 14.57L1.77055 18.2466L5.61341 17.2946C5.71203 17.2702 5.81625 17.2842 5.90492 17.3338C7.11672 18.0118 8.51212 18.4 10 18.4C14.6391 18.4 18.4 14.6391 18.4 10C18.4 5.36096 14.6391 1.60005 10 1.60005Z" fill="white"/>
</g>
<defs>
<clipPath id="clip0_4015_1281">
<rect width="20" height="20" fill="white"/>
</clipPath>
</defs>
</svg>
