<svg width="64" height="64" viewBox="0 0 64 64" fill="none" xmlns="http://www.w3.org/2000/svg">
<path d="M32.5333 35.518L45.7539 22.2973L43.8666 20.3793L32.5333 31.7127L26.7999 26.01L24.9126 27.8973L32.5333 35.518ZM21.6413 45.3333C20.4137 45.3333 19.3888 44.9222 18.5666 44.1C17.7444 43.2778 17.3333 42.2529 17.3333 41.0253V12.308C17.3333 11.0804 17.7444 10.0556 18.5666 9.23333C19.3888 8.41111 20.4137 8 21.6413 8H50.3586C51.5861 8 52.611 8.41111 53.4333 9.23333C54.2555 10.0556 54.6666 11.0804 54.6666 12.308V41.0253C54.6666 42.2529 54.2555 43.2778 53.4333 44.1C52.611 44.9222 51.5861 45.3333 50.3586 45.3333H21.6413ZM13.6413 53.3333C12.4137 53.3333 11.3888 52.9222 10.5666 52.1C9.74436 51.2778 9.33325 50.2531 9.33325 49.026V17.6413H11.9999V49.026C11.9999 49.4362 12.1708 49.8122 12.5126 50.154C12.8544 50.4958 13.2306 50.6667 13.6413 50.6667H45.0252V53.3333H13.6413Z" fill="#FF7801"/>
</svg>
